<svg width="369" height="369" viewBox="0 0 369 369" fill="none" xmlns="http://www.w3.org/2000/svg">
<g opacity="0.4">
<rect x="0.810669" y="0.905762" width="8" height="8" fill="#BDBDBD"/>
</g>
<g opacity="0.4">
<rect x="40.8107" y="0.905762" width="8" height="8" fill="#BDBDBD"/>
</g>
<g opacity="0.4">
<rect x="80.8107" y="0.905762" width="8" height="8" fill="#BDBDBD"/>
</g>
<g opacity="0.4">
<rect x="120.811" y="0.905762" width="8" height="8" fill="#BDBDBD"/>
</g>
<g opacity="0.4">
<rect x="160.811" y="0.905762" width="8" height="8" fill="#BDBDBD"/>
</g>
<g opacity="0.4">
<rect x="200.811" y="0.905762" width="8" height="8" fill="#BDBDBD"/>
</g>
<g opacity="0.4">
<rect x="240.811" y="0.905762" width="8" height="8" fill="#BDBDBD"/>
</g>
<g opacity="0.4">
<rect x="280.811" y="0.905762" width="8" height="8" fill="#BDBDBD"/>
</g>
<g opacity="0.4">
<rect x="320.811" y="0.905762" width="8" height="8" fill="#BDBDBD"/>
</g>
<g opacity="0.4">
<rect x="360.811" y="0.905762" width="8" height="8" fill="#BDBDBD"/>
</g>
<g opacity="0.4">
<rect x="0.810669" y="40.9058" width="8" height="8" fill="#BDBDBD"/>
</g>
<g opacity="0.4">
<rect x="40.8107" y="40.9058" width="8" height="8" fill="#BDBDBD"/>
</g>
<g opacity="0.4">
<rect x="80.8107" y="40.9058" width="8" height="8" fill="#BDBDBD"/>
</g>
<g opacity="0.4">
<rect x="120.811" y="40.9058" width="8" height="8" fill="#BDBDBD"/>
</g>
<g opacity="0.4">
<rect x="160.811" y="40.9058" width="8" height="8" fill="#BDBDBD"/>
</g>
<g opacity="0.4">
<rect x="200.811" y="40.9058" width="8" height="8" fill="#BDBDBD"/>
</g>
<g opacity="0.4">
<rect x="240.811" y="40.9058" width="8" height="8" fill="#BDBDBD"/>
</g>
<g opacity="0.4">
<rect x="280.811" y="40.9058" width="8" height="8" fill="#BDBDBD"/>
</g>
<g opacity="0.4">
<rect x="320.811" y="40.9058" width="8" height="8" fill="#BDBDBD"/>
</g>
<g opacity="0.4">
<rect x="360.811" y="40.9058" width="8" height="8" fill="#BDBDBD"/>
</g>
<g opacity="0.4">
<rect x="0.810669" y="80.9058" width="8" height="8" fill="#BDBDBD"/>
</g>
<g opacity="0.4">
<rect x="40.8107" y="80.9058" width="8" height="8" fill="#BDBDBD"/>
</g>
<g opacity="0.4">
<rect x="80.8107" y="80.9058" width="8" height="8" fill="#BDBDBD"/>
</g>
<g opacity="0.4">
<rect x="120.811" y="80.9058" width="8" height="8" fill="#BDBDBD"/>
</g>
<g opacity="0.4">
<rect x="160.811" y="80.9058" width="8" height="8" fill="#BDBDBD"/>
</g>
<g opacity="0.4">
<rect x="200.811" y="80.9058" width="8" height="8" fill="#BDBDBD"/>
</g>
<g opacity="0.4">
<rect x="240.811" y="80.9058" width="8" height="8" fill="#BDBDBD"/>
</g>
<g opacity="0.4">
<rect x="280.811" y="80.9058" width="8" height="8" fill="#BDBDBD"/>
</g>
<g opacity="0.4">
<rect x="320.811" y="80.9058" width="8" height="8" fill="#BDBDBD"/>
</g>
<g opacity="0.4">
<rect x="360.811" y="80.9058" width="8" height="8" fill="#BDBDBD"/>
</g>
<g opacity="0.4">
<rect x="0.810669" y="120.906" width="8" height="8" fill="#BDBDBD"/>
</g>
<g opacity="0.4">
<rect x="40.8107" y="120.906" width="8" height="8" fill="#BDBDBD"/>
</g>
<g opacity="0.4">
<rect x="80.8107" y="120.906" width="8" height="8" fill="#BDBDBD"/>
</g>
<g opacity="0.4">
<rect x="120.811" y="120.906" width="8" height="8" fill="#BDBDBD"/>
</g>
<g opacity="0.4">
<rect x="160.811" y="120.906" width="8" height="8" fill="#BDBDBD"/>
</g>
<g opacity="0.4">
<rect x="200.811" y="120.906" width="8" height="8" fill="#BDBDBD"/>
</g>
<g opacity="0.4">
<rect x="240.811" y="120.906" width="8" height="8" fill="#BDBDBD"/>
</g>
<g opacity="0.4">
<rect x="280.811" y="120.906" width="8" height="8" fill="#BDBDBD"/>
</g>
<g opacity="0.4">
<rect x="320.811" y="120.906" width="8" height="8" fill="#BDBDBD"/>
</g>
<g opacity="0.4">
<rect x="360.811" y="120.906" width="8" height="8" fill="#BDBDBD"/>
</g>
<g opacity="0.4">
<rect x="0.810669" y="160.906" width="8" height="8" fill="#BDBDBD"/>
</g>
<g opacity="0.4">
<rect x="40.8107" y="160.906" width="8" height="8" fill="#BDBDBD"/>
</g>
<g opacity="0.4">
<rect x="80.8107" y="160.906" width="8" height="8" fill="#BDBDBD"/>
</g>
<g opacity="0.4">
<rect x="120.811" y="160.906" width="8" height="8" fill="#BDBDBD"/>
</g>
<g opacity="0.4">
<rect x="160.811" y="160.906" width="8" height="8" fill="#BDBDBD"/>
</g>
<g opacity="0.4">
<rect x="200.811" y="160.906" width="8" height="8" fill="#BDBDBD"/>
</g>
<g opacity="0.4">
<rect x="240.811" y="160.906" width="8" height="8" fill="#BDBDBD"/>
</g>
<g opacity="0.4">
<rect x="280.811" y="160.906" width="8" height="8" fill="#BDBDBD"/>
</g>
<g opacity="0.4">
<rect x="320.811" y="160.906" width="8" height="8" fill="#BDBDBD"/>
</g>
<g opacity="0.4">
<rect x="360.811" y="160.906" width="8" height="8" fill="#BDBDBD"/>
</g>
<g opacity="0.4">
<rect x="0.810669" y="200.906" width="8" height="8" fill="#BDBDBD"/>
</g>
<g opacity="0.4">
<rect x="40.8107" y="200.906" width="8" height="8" fill="#BDBDBD"/>
</g>
<g opacity="0.4">
<rect x="80.8107" y="200.906" width="8" height="8" fill="#BDBDBD"/>
</g>
<g opacity="0.4">
<rect x="120.811" y="200.906" width="8" height="8" fill="#BDBDBD"/>
</g>
<g opacity="0.4">
<rect x="160.811" y="200.906" width="8" height="8" fill="#BDBDBD"/>
</g>
<g opacity="0.4">
<rect x="200.811" y="200.906" width="8" height="8" fill="#BDBDBD"/>
</g>
<g opacity="0.4">
<rect x="240.811" y="200.906" width="8" height="8" fill="#BDBDBD"/>
</g>
<g opacity="0.4">
<rect x="280.811" y="200.906" width="8" height="8" fill="#BDBDBD"/>
</g>
<g opacity="0.4">
<rect x="320.811" y="200.906" width="8" height="8" fill="#BDBDBD"/>
</g>
<g opacity="0.4">
<rect x="360.811" y="200.906" width="8" height="8" fill="#BDBDBD"/>
</g>
<g opacity="0.4">
<rect x="0.810669" y="240.906" width="8" height="8" fill="#BDBDBD"/>
</g>
<g opacity="0.4">
<rect x="40.8107" y="240.906" width="8" height="8" fill="#BDBDBD"/>
</g>
<g opacity="0.4">
<rect x="80.8107" y="240.906" width="8" height="8" fill="#BDBDBD"/>
</g>
<g opacity="0.4">
<rect x="120.811" y="240.906" width="8" height="8" fill="#BDBDBD"/>
</g>
<g opacity="0.4">
<rect x="160.811" y="240.906" width="8" height="8" fill="#BDBDBD"/>
</g>
<g opacity="0.4">
<rect x="200.811" y="240.906" width="8" height="8" fill="#BDBDBD"/>
</g>
<g opacity="0.4">
<rect x="240.811" y="240.906" width="8" height="8" fill="#BDBDBD"/>
</g>
<g opacity="0.4">
<rect x="280.811" y="240.906" width="8" height="8" fill="#BDBDBD"/>
</g>
<g opacity="0.4">
<rect x="320.811" y="240.906" width="8" height="8" fill="#BDBDBD"/>
</g>
<g opacity="0.4">
<rect x="360.811" y="240.906" width="8" height="8" fill="#BDBDBD"/>
</g>
<g opacity="0.4">
<rect x="0.810669" y="280.906" width="8" height="8" fill="#BDBDBD"/>
</g>
<g opacity="0.4">
<rect x="40.8107" y="280.906" width="8" height="8" fill="#BDBDBD"/>
</g>
<g opacity="0.4">
<rect x="80.8107" y="280.906" width="8" height="8" fill="#BDBDBD"/>
</g>
<g opacity="0.4">
<rect x="120.811" y="280.906" width="8" height="8" fill="#BDBDBD"/>
</g>
<g opacity="0.4">
<rect x="160.811" y="280.906" width="8" height="8" fill="#BDBDBD"/>
</g>
<g opacity="0.4">
<rect x="200.811" y="280.906" width="8" height="8" fill="#BDBDBD"/>
</g>
<g opacity="0.4">
<rect x="240.811" y="280.906" width="8" height="8" fill="#BDBDBD"/>
</g>
<g opacity="0.4">
<rect x="280.811" y="280.906" width="8" height="8" fill="#BDBDBD"/>
</g>
<g opacity="0.4">
<rect x="320.811" y="280.906" width="8" height="8" fill="#BDBDBD"/>
</g>
<g opacity="0.4">
<rect x="360.811" y="280.906" width="8" height="8" fill="#BDBDBD"/>
</g>
<g opacity="0.4">
<rect x="0.810669" y="320.906" width="8" height="8" fill="#BDBDBD"/>
</g>
<g opacity="0.4">
<rect x="40.8107" y="320.906" width="8" height="8" fill="#BDBDBD"/>
</g>
<g opacity="0.4">
<rect x="80.8107" y="320.906" width="8" height="8" fill="#BDBDBD"/>
</g>
<g opacity="0.4">
<rect x="120.811" y="320.906" width="8" height="8" fill="#BDBDBD"/>
</g>
<g opacity="0.4">
<rect x="160.811" y="320.906" width="8" height="8" fill="#BDBDBD"/>
</g>
<g opacity="0.4">
<rect x="200.811" y="320.906" width="8" height="8" fill="#BDBDBD"/>
</g>
<g opacity="0.4">
<rect x="240.811" y="320.906" width="8" height="8" fill="#BDBDBD"/>
</g>
<g opacity="0.4">
<rect x="280.811" y="320.906" width="8" height="8" fill="#BDBDBD"/>
</g>
<g opacity="0.4">
<rect x="320.811" y="320.906" width="8" height="8" fill="#BDBDBD"/>
</g>
<g opacity="0.4">
<rect x="360.811" y="320.906" width="8" height="8" fill="#BDBDBD"/>
</g>
<g opacity="0.4">
<rect x="0.810669" y="360.906" width="8" height="8" fill="#BDBDBD"/>
</g>
<g opacity="0.4">
<rect x="40.8107" y="360.906" width="8" height="8" fill="#BDBDBD"/>
</g>
<g opacity="0.4">
<rect x="80.8107" y="360.906" width="8" height="8" fill="#BDBDBD"/>
</g>
<g opacity="0.4">
<rect x="120.811" y="360.906" width="8" height="8" fill="#BDBDBD"/>
</g>
<g opacity="0.4">
<rect x="160.811" y="360.906" width="8" height="8" fill="#BDBDBD"/>
</g>
<g opacity="0.4">
<rect x="200.811" y="360.906" width="8" height="8" fill="#BDBDBD"/>
</g>
<g opacity="0.4">
<rect x="240.811" y="360.906" width="8" height="8" fill="#BDBDBD"/>
</g>
<g opacity="0.4">
<rect x="280.811" y="360.906" width="8" height="8" fill="#BDBDBD"/>
</g>
<g opacity="0.4">
<rect x="320.811" y="360.906" width="8" height="8" fill="#BDBDBD"/>
</g>
<g opacity="0.4">
<rect x="360.811" y="360.906" width="8" height="8" fill="#BDBDBD"/>
</g>
</svg>
