<svg width="325" height="207" viewBox="0 0 325 207" fill="none" xmlns="http://www.w3.org/2000/svg">
<rect width="325" height="207" fill="#F1F1F1"/>
<path d="M124.449 157.264C125.527 157.264 126.38 157.584 127.009 158.224C127.649 158.853 127.969 159.803 127.969 161.072V166H125.473V161.456C125.473 160.773 125.329 160.267 125.041 159.936C124.764 159.595 124.364 159.424 123.841 159.424C123.255 159.424 122.791 159.616 122.449 160C122.108 160.373 121.937 160.933 121.937 161.68V166H119.441V161.456C119.441 160.101 118.897 159.424 117.809 159.424C117.233 159.424 116.775 159.616 116.433 160C116.092 160.373 115.921 160.933 115.921 161.68V166H113.425V157.392H115.809V158.384C116.129 158.021 116.519 157.744 116.977 157.552C117.447 157.36 117.959 157.264 118.513 157.264C119.121 157.264 119.671 157.387 120.161 157.632C120.652 157.867 121.047 158.213 121.345 158.672C121.697 158.224 122.14 157.877 122.673 157.632C123.217 157.387 123.809 157.264 124.449 157.264ZM130.207 157.392H132.703V166H130.207V157.392ZM131.455 156.192C130.996 156.192 130.623 156.059 130.335 155.792C130.047 155.525 129.903 155.195 129.903 154.8C129.903 154.405 130.047 154.075 130.335 153.808C130.623 153.541 130.996 153.408 131.455 153.408C131.913 153.408 132.287 153.536 132.575 153.792C132.863 154.048 133.007 154.368 133.007 154.752C133.007 155.168 132.863 155.515 132.575 155.792C132.287 156.059 131.913 156.192 131.455 156.192ZM133.867 166H141.867V167.44H133.867V166ZM151.904 160.176C152.544 160.379 153.045 160.72 153.408 161.2C153.77 161.669 153.952 162.251 153.952 162.944C153.952 163.925 153.568 164.683 152.8 165.216C152.042 165.739 150.933 166 149.472 166H143.68V154.8H149.152C150.517 154.8 151.562 155.061 152.288 155.584C153.024 156.107 153.392 156.816 153.392 157.712C153.392 158.256 153.258 158.741 152.992 159.168C152.736 159.595 152.373 159.931 151.904 160.176ZM146.256 156.752V159.392H148.832C149.472 159.392 149.957 159.28 150.288 159.056C150.618 158.832 150.784 158.501 150.784 158.064C150.784 157.627 150.618 157.301 150.288 157.088C149.957 156.864 149.472 156.752 148.832 156.752H146.256ZM149.28 164.048C149.962 164.048 150.474 163.936 150.816 163.712C151.168 163.488 151.344 163.141 151.344 162.672C151.344 161.744 150.656 161.28 149.28 161.28H146.256V164.048H149.28ZM159.21 157.264C160.543 157.264 161.567 157.584 162.282 158.224C162.997 158.853 163.354 159.808 163.354 161.088V166H161.018V164.928C160.549 165.728 159.674 166.128 158.394 166.128C157.733 166.128 157.157 166.016 156.666 165.792C156.186 165.568 155.818 165.259 155.562 164.864C155.306 164.469 155.178 164.021 155.178 163.52C155.178 162.72 155.477 162.091 156.074 161.632C156.682 161.173 157.615 160.944 158.874 160.944H160.858C160.858 160.4 160.693 159.984 160.362 159.696C160.031 159.397 159.535 159.248 158.874 159.248C158.415 159.248 157.962 159.323 157.514 159.472C157.077 159.611 156.703 159.803 156.394 160.048L155.498 158.304C155.967 157.973 156.527 157.717 157.178 157.536C157.839 157.355 158.517 157.264 159.21 157.264ZM159.018 164.448C159.445 164.448 159.823 164.352 160.154 164.16C160.485 163.957 160.719 163.664 160.858 163.28V162.4H159.146C158.122 162.4 157.61 162.736 157.61 163.408C157.61 163.728 157.733 163.984 157.978 164.176C158.234 164.357 158.581 164.448 159.018 164.448ZM170.701 157.264C171.501 157.264 172.226 157.451 172.877 157.824C173.538 158.187 174.056 158.704 174.429 159.376C174.802 160.037 174.989 160.811 174.989 161.696C174.989 162.581 174.802 163.36 174.429 164.032C174.056 164.693 173.538 165.211 172.877 165.584C172.226 165.947 171.501 166.128 170.701 166.128C169.517 166.128 168.616 165.755 167.997 165.008V166H165.613V154.128H168.109V158.304C168.738 157.611 169.602 157.264 170.701 157.264ZM170.269 164.08C170.909 164.08 171.432 163.867 171.837 163.44C172.253 163.003 172.461 162.421 172.461 161.696C172.461 160.971 172.253 160.395 171.837 159.968C171.432 159.531 170.909 159.312 170.269 159.312C169.629 159.312 169.101 159.531 168.685 159.968C168.28 160.395 168.077 160.971 168.077 161.696C168.077 162.421 168.28 163.003 168.685 163.44C169.101 163.867 169.629 164.08 170.269 164.08ZM185.332 157.392V166H182.964V164.976C182.633 165.349 182.238 165.637 181.78 165.84C181.321 166.032 180.825 166.128 180.292 166.128C179.161 166.128 178.265 165.803 177.604 165.152C176.942 164.501 176.612 163.536 176.612 162.256V157.392H179.108V161.888C179.108 163.275 179.689 163.968 180.852 163.968C181.449 163.968 181.929 163.776 182.292 163.392C182.654 162.997 182.836 162.416 182.836 161.648V157.392H185.332ZM190.028 158.528C190.327 158.112 190.727 157.797 191.228 157.584C191.74 157.371 192.327 157.264 192.988 157.264V159.568C192.711 159.547 192.524 159.536 192.428 159.536C191.714 159.536 191.154 159.739 190.748 160.144C190.343 160.539 190.14 161.136 190.14 161.936V166H187.644V157.392H190.028V158.528ZM197.897 157.264C199.231 157.264 200.255 157.584 200.969 158.224C201.684 158.853 202.041 159.808 202.041 161.088V166H199.705V164.928C199.236 165.728 198.361 166.128 197.081 166.128C196.42 166.128 195.844 166.016 195.353 165.792C194.873 165.568 194.505 165.259 194.249 164.864C193.993 164.469 193.865 164.021 193.865 163.52C193.865 162.72 194.164 162.091 194.761 161.632C195.369 161.173 196.303 160.944 197.561 160.944H199.545C199.545 160.4 199.38 159.984 199.049 159.696C198.719 159.397 198.223 159.248 197.561 159.248C197.103 159.248 196.649 159.323 196.201 159.472C195.764 159.611 195.391 159.803 195.081 160.048L194.185 158.304C194.655 157.973 195.215 157.717 195.865 157.536C196.527 157.355 197.204 157.264 197.897 157.264ZM197.705 164.448C198.132 164.448 198.511 164.352 198.841 164.16C199.172 163.957 199.407 163.664 199.545 163.28V162.4H197.833C196.809 162.4 196.297 162.736 196.297 163.408C196.297 163.728 196.42 163.984 196.665 164.176C196.921 164.357 197.268 164.448 197.705 164.448ZM208.49 166.128C207.584 166.128 206.768 165.941 206.042 165.568C205.328 165.184 204.768 164.656 204.362 163.984C203.957 163.312 203.754 162.549 203.754 161.696C203.754 160.843 203.957 160.08 204.362 159.408C204.768 158.736 205.328 158.213 206.042 157.84C206.768 157.456 207.584 157.264 208.49 157.264C209.397 157.264 210.208 157.456 210.922 157.84C211.637 158.213 212.197 158.736 212.602 159.408C213.008 160.08 213.21 160.843 213.21 161.696C213.21 162.549 213.008 163.312 212.602 163.984C212.197 164.656 211.637 165.184 210.922 165.568C210.208 165.941 209.397 166.128 208.49 166.128ZM208.49 164.08C209.13 164.08 209.653 163.867 210.058 163.44C210.474 163.003 210.682 162.421 210.682 161.696C210.682 160.971 210.474 160.395 210.058 159.968C209.653 159.531 209.13 159.312 208.49 159.312C207.85 159.312 207.322 159.531 206.906 159.968C206.49 160.395 206.282 160.971 206.282 161.696C206.282 162.421 206.49 163.003 206.906 163.44C207.322 163.867 207.85 164.08 208.49 164.08Z" fill="#333333"/>
<path d="M190.443 91.4109L192.625 82.3172V68.6766L184.38 54.5813L183.774 48.2763L182.016 50.0344L175.104 40.0616L174.438 43.4566L166.041 38.2428L165.465 41.6378L159.008 37L157.523 42.7897L147.278 41.6378L148.581 44.1538L144.125 44.6388V48.1247L141.245 50.0041L142.852 51.5197L139.002 52.8838L140.548 54.6116L132 68.7069V83.0447L134.364 90.9866L135.637 88.3797V80.8925L138.669 76.7397V66.4334L144.398 58.825H162.464L180.47 58.6734L186.259 66.4941V76.6488L189.291 81.3472V88.2584L190.443 91.4109Z" fill="#333333"/>
<path d="M186.108 82.9537L184.926 80.8318L181.227 78.7403L170.618 79.7406L169.102 82.59L171.709 82.9537L183.198 81.62L186.108 82.9537Z" fill="#333333"/>
<path d="M138.851 82.9537L140.033 80.8318L143.731 78.7403L154.31 79.7406L155.826 82.59L153.219 82.9537L141.761 81.62L138.851 82.9537Z" fill="#333333"/>
<path d="M175.317 113.084L166.314 110.023L163.525 111.72V105.809L167.405 106.688L177.378 109.174L179.469 114.812L175.317 113.084ZM149.642 113.084L158.614 110.023L161.403 111.72V105.809L157.523 106.688L147.55 109.174L145.459 114.812L149.642 113.084Z" fill="#333333"/>
<path d="M182.016 108.295L178.318 117.722L172.983 123.088H151.946L146.914 118.025L142.913 108.295L135.092 99.8984L135.547 108.295L139.033 119.511L148.369 128.938V129.029L153.37 133.879L162.676 134L171.952 133.879L185.865 119.511L189.382 108.295L189.867 99.8984L182.016 108.295Z" fill="#333333"/>
</svg>
