<svg width="325" height="207" viewBox="0 0 325 207" fill="none" xmlns="http://www.w3.org/2000/svg">
<rect width="325" height="207" fill="#F1F1F1"/>
<path d="M186.997 107.509L188.677 100.572V90.1656L182.329 79.4125L181.862 74.6025L180.508 75.9438L175.187 68.3356L174.674 70.9256L168.209 66.9481L167.766 69.5381L162.795 66L161.651 70.4169L153.763 69.5381L154.766 71.4575L151.335 71.8275V74.4869L149.118 75.9206L150.355 77.0769L147.391 78.1175L148.581 79.4356L142 90.1887V101.127L143.82 107.186L144.801 105.197V99.485L147.134 96.3169V88.4544L151.545 82.65H165.455L179.318 82.5344L183.776 88.5006V96.2475L186.11 99.8319V105.104L186.997 107.509Z" fill="#333333"/>
<path d="M183.659 101.057L182.749 99.4387L179.902 97.8431L171.733 98.6062L170.566 100.78L172.573 101.057L181.419 100.04L183.659 101.057Z" fill="#333333"/>
<path d="M147.275 101.057L148.185 99.4387L151.032 97.8431L159.177 98.6062L160.344 100.78L158.337 101.057L149.515 100.04L147.275 101.057Z" fill="#333333"/>
<path d="M175.351 124.044L168.419 121.708L166.272 123.003V118.494L169.259 119.164L176.938 121.061L178.548 125.362L175.351 124.044ZM155.583 124.044L162.491 121.708L164.638 123.003V118.494L161.651 119.164L153.973 121.061L152.362 125.362L155.583 124.044Z" fill="#333333"/>
<path d="M180.508 120.39L177.661 127.582L173.554 131.675H157.357L153.483 127.813L150.402 120.39L144.381 113.984L144.731 120.39L147.415 128.946L154.603 136.138V136.207L158.454 139.907L165.619 140L172.76 139.907L183.472 128.946L186.18 120.39L186.553 113.984L180.508 120.39Z" fill="#333333"/>
</svg>
