<svg width="325" height="207" viewBox="0 0 325 207" fill="none" xmlns="http://www.w3.org/2000/svg">
<rect width="325" height="207" fill="white"/>
<rect width="325" height="207" fill="#F1F1F1"/>
<rect width="325" height="207" fill="url(#paint0_linear)"/>
<path d="M100.781 106.281C100.948 105.24 101.073 104.094 101.156 102.844C101.26 101.594 101.312 100.344 101.312 99.0938C101.312 98.0938 101.271 97.1562 101.188 96.2812C101.104 95.4062 100.958 94.6979 100.75 94.1562C100.688 93.9271 100.51 93.8021 100.219 93.7812C99.9271 93.7604 99.6146 93.75 99.2812 93.75C98.9688 93.75 98.6771 93.6979 98.4062 93.5938C98.1354 93.4688 98 93.1979 98 92.7812C98 92.5729 98.0833 92.3854 98.25 92.2188C98.4375 92.0521 98.6875 91.9688 99 91.9688C99.4167 92.0104 99.8021 92.0417 100.156 92.0625C100.531 92.0833 100.885 92.0938 101.219 92.0938C101.698 92.0938 102.229 92.0417 102.812 91.9375C103.417 91.8333 104.083 91.7812 104.812 91.7812C105.062 91.7812 105.271 91.8646 105.438 92.0312C105.604 92.1771 105.688 92.3542 105.688 92.5625C105.688 92.8333 105.573 93.0521 105.344 93.2188C105.135 93.3854 104.875 93.5104 104.562 93.5938C104.25 93.6771 103.917 93.7292 103.562 93.75C103.208 93.7708 102.896 93.7812 102.625 93.7812C102.833 94.5312 102.969 95.4688 103.031 96.5938C103.115 97.7188 103.156 98.875 103.156 100.062C103.156 101.25 103.104 102.406 103 103.531C102.917 104.635 102.833 105.542 102.75 106.25C103.062 106.25 103.375 106.229 103.688 106.188C104.021 106.125 104.396 106.094 104.812 106.094C105.062 106.094 105.271 106.177 105.438 106.344C105.604 106.49 105.688 106.646 105.688 106.812C105.688 107.125 105.531 107.365 105.219 107.531C104.906 107.698 104.531 107.823 104.094 107.906C103.656 107.99 103.198 108.031 102.719 108.031C102.24 108.052 101.833 108.062 101.5 108.062C101.146 108.062 100.76 108.062 100.344 108.062C99.9479 108.062 99.5729 108.031 99.2188 107.969C98.8646 107.906 98.5729 107.802 98.3438 107.656C98.1146 107.51 98 107.292 98 107C98 106.792 98.0833 106.615 98.25 106.469C98.4375 106.302 98.6875 106.219 99 106.219C99.1458 106.24 99.2917 106.26 99.4375 106.281C99.6042 106.281 99.7708 106.281 99.9375 106.281H100.781ZM111.438 106.344C111.667 106.406 111.844 106.531 111.969 106.719C112.094 106.885 112.156 107.073 112.156 107.281C112.156 107.531 112.083 107.76 111.938 107.969C111.792 108.156 111.583 108.25 111.312 108.25C111.167 108.25 111.021 108.219 110.875 108.156C110.021 107.948 109.385 107.656 108.969 107.281C108.552 106.885 108.26 106.417 108.094 105.875C107.927 105.333 107.844 104.708 107.844 104C107.844 103.271 107.844 102.448 107.844 101.531C107.844 100.802 107.854 100.052 107.875 99.2812C107.896 98.5104 107.927 97.75 107.969 97C108.01 96.2292 108.062 95.4896 108.125 94.7812C108.188 94.0729 108.25 93.4271 108.312 92.8438C108.333 92.5312 108.417 92.3021 108.562 92.1562C108.729 92.0104 108.917 91.9375 109.125 91.9375C109.354 91.9375 109.573 92.0208 109.781 92.1875C110.01 92.3542 110.125 92.6146 110.125 92.9688C110.062 93.5729 110 94.3125 109.938 95.1875C109.896 96.0417 109.854 96.9479 109.812 97.9062C109.792 98.8646 109.771 99.8229 109.75 100.781C109.729 101.74 109.719 102.604 109.719 103.375C109.719 103.792 109.719 104.167 109.719 104.5C109.74 104.812 109.802 105.094 109.906 105.344C110.031 105.573 110.208 105.771 110.438 105.938C110.667 106.104 111 106.24 111.438 106.344ZM117.812 106.344C118.042 106.406 118.219 106.531 118.344 106.719C118.469 106.885 118.531 107.073 118.531 107.281C118.531 107.531 118.458 107.76 118.312 107.969C118.167 108.156 117.958 108.25 117.688 108.25C117.542 108.25 117.396 108.219 117.25 108.156C116.396 107.948 115.76 107.656 115.344 107.281C114.927 106.885 114.635 106.417 114.469 105.875C114.302 105.333 114.219 104.708 114.219 104C114.219 103.271 114.219 102.448 114.219 101.531C114.219 100.802 114.229 100.052 114.25 99.2812C114.271 98.5104 114.302 97.75 114.344 97C114.385 96.2292 114.438 95.4896 114.5 94.7812C114.562 94.0729 114.625 93.4271 114.688 92.8438C114.708 92.5312 114.792 92.3021 114.938 92.1562C115.104 92.0104 115.292 91.9375 115.5 91.9375C115.729 91.9375 115.948 92.0208 116.156 92.1875C116.385 92.3542 116.5 92.6146 116.5 92.9688C116.438 93.5729 116.375 94.3125 116.312 95.1875C116.271 96.0417 116.229 96.9479 116.188 97.9062C116.167 98.8646 116.146 99.8229 116.125 100.781C116.104 101.74 116.094 102.604 116.094 103.375C116.094 103.792 116.094 104.167 116.094 104.5C116.115 104.812 116.177 105.094 116.281 105.344C116.406 105.573 116.583 105.771 116.812 105.938C117.042 106.104 117.375 106.24 117.812 106.344ZM131.25 98.6562V99.1562C131.25 100.135 131.177 101.167 131.031 102.25C130.906 103.333 130.656 104.333 130.281 105.25C129.927 106.146 129.427 106.896 128.781 107.5C128.135 108.083 127.302 108.375 126.281 108.375C125.552 108.375 124.844 108.219 124.156 107.906C123.49 107.573 122.979 107.073 122.625 106.406C122.354 105.927 122.094 105.365 121.844 104.719C121.615 104.073 121.406 103.396 121.219 102.688C121.052 101.958 120.917 101.219 120.812 100.469C120.729 99.7188 120.688 98.9896 120.688 98.2812C120.688 98.0104 120.771 97.8021 120.938 97.6562C121.125 97.4896 121.344 97.4062 121.594 97.4062C121.844 97.4062 122.073 97.4896 122.281 97.6562C122.49 97.8021 122.604 98.0312 122.625 98.3438C122.688 99.3021 122.781 100.26 122.906 101.219C123.052 102.177 123.25 103.042 123.5 103.812C123.771 104.562 124.115 105.177 124.531 105.656C124.969 106.135 125.5 106.375 126.125 106.375C126.646 106.375 127.104 106.198 127.5 105.844C127.896 105.469 128.229 104.969 128.5 104.344C128.792 103.719 129.01 102.979 129.156 102.125C129.302 101.25 129.375 100.312 129.375 99.3125V98.5938C129.375 98.3021 129.458 98.0833 129.625 97.9375C129.812 97.7708 130.021 97.6875 130.25 97.6875C130.479 97.6875 130.698 97.7708 130.906 97.9375C131.115 98.0833 131.229 98.3229 131.25 98.6562ZM136.375 99.7188C136 99.8854 135.812 100.167 135.812 100.562C135.812 100.812 136 101.115 136.375 101.469C136.771 101.823 137.208 102.188 137.688 102.562C138.188 102.917 138.667 103.26 139.125 103.594C139.583 103.927 139.896 104.198 140.062 104.406C140.375 104.844 140.531 105.292 140.531 105.75C140.531 106.229 140.427 106.615 140.219 106.906C140.031 107.198 139.76 107.427 139.406 107.594C139.073 107.76 138.677 107.875 138.219 107.938C137.781 108 137.323 108.031 136.844 108.031C136.51 108.031 136.104 108.021 135.625 108C135.146 107.979 134.677 107.927 134.219 107.844C133.781 107.76 133.406 107.646 133.094 107.5C132.781 107.333 132.625 107.125 132.625 106.875C132.625 106.667 132.688 106.448 132.812 106.219C132.938 105.99 133.115 105.875 133.344 105.875C133.365 105.875 133.385 105.885 133.406 105.906C133.427 105.906 133.458 105.906 133.5 105.906C133.958 106.031 134.542 106.125 135.25 106.188C135.958 106.25 136.646 106.281 137.312 106.281C137.667 106.281 137.958 106.229 138.188 106.125C138.417 106 138.531 105.823 138.531 105.594C138.531 105.385 138.427 105.167 138.219 104.938C138.01 104.688 137.75 104.448 137.438 104.219C137.146 103.99 136.833 103.771 136.5 103.562C136.188 103.354 135.917 103.167 135.688 103C135.021 102.542 134.531 102.115 134.219 101.719C133.927 101.302 133.781 100.854 133.781 100.375C133.781 99.8333 133.917 99.3958 134.188 99.0625C134.479 98.7083 134.844 98.4271 135.281 98.2188C135.719 98.0104 136.198 97.875 136.719 97.8125C137.26 97.7292 137.781 97.6875 138.281 97.6875C138.573 97.6875 138.865 97.6979 139.156 97.7188C139.448 97.7396 139.708 97.7917 139.938 97.875C140.167 97.9375 140.354 98.0417 140.5 98.1875C140.646 98.3125 140.719 98.4896 140.719 98.7188C140.719 98.9479 140.667 99.1458 140.562 99.3125C140.479 99.4792 140.333 99.5625 140.125 99.5625C139.938 99.5625 139.656 99.5312 139.281 99.4688C138.927 99.4062 138.51 99.375 138.031 99.375C137.385 99.375 136.833 99.4896 136.375 99.7188ZM151.188 107.969C149.146 107.802 147.646 107.125 146.688 105.938C145.729 104.75 145.25 103.052 145.25 100.844V99.5312C144.438 99.5312 143.76 99.4583 143.219 99.3125C142.677 99.1458 142.406 98.8021 142.406 98.2812C142.448 98.0938 142.542 97.9375 142.688 97.8125C142.833 97.6667 143.042 97.5938 143.312 97.5938C143.562 97.5938 143.865 97.625 144.219 97.6875C144.573 97.75 144.958 97.7812 145.375 97.7812C145.375 97.1146 145.396 96.4375 145.438 95.75C145.479 95.0417 145.552 94.4062 145.656 93.8438C145.781 93.2812 145.938 92.8229 146.125 92.4688C146.312 92.0938 146.562 91.9062 146.875 91.9062C147.104 91.9062 147.312 92.0104 147.5 92.2188C147.688 92.4062 147.781 92.6667 147.781 93C147.781 93.5208 147.719 94.2188 147.594 95.0938C147.469 95.9688 147.375 96.8854 147.312 97.8438C147.479 97.8646 147.646 97.8854 147.812 97.9062C148 97.9062 148.188 97.9062 148.375 97.9062C148.708 97.9062 149.042 97.8958 149.375 97.875C149.729 97.8542 150.083 97.8229 150.438 97.7812C150.729 97.7812 150.969 97.8646 151.156 98.0312C151.344 98.1979 151.438 98.3854 151.438 98.5938C151.438 98.8854 151.354 99.1042 151.188 99.25C151.021 99.375 150.802 99.4688 150.531 99.5312C150.281 99.5729 149.979 99.5938 149.625 99.5938C149.292 99.5938 148.958 99.5938 148.625 99.5938H147.188C147.167 99.8229 147.156 100.042 147.156 100.25C147.156 100.458 147.156 100.667 147.156 100.875C147.156 101.625 147.219 102.302 147.344 102.906C147.49 103.49 147.729 104.01 148.062 104.469C148.396 104.927 148.833 105.302 149.375 105.594C149.917 105.885 150.583 106.094 151.375 106.219C151.604 106.26 151.771 106.354 151.875 106.5C151.979 106.646 152.031 106.812 152.031 107C152.031 107.25 151.958 107.479 151.812 107.688C151.688 107.875 151.479 107.969 151.188 107.969ZM154.5 106.906C154.604 106.198 154.677 105.521 154.719 104.875C154.781 104.208 154.812 103.552 154.812 102.906C154.812 101.635 154.688 100.323 154.438 98.9688C154.417 98.9062 154.406 98.8229 154.406 98.7188C154.406 98.4271 154.49 98.1875 154.656 98C154.844 97.8125 155.062 97.7188 155.312 97.7188C155.583 97.7188 155.781 97.8125 155.906 98C156.052 98.1875 156.156 98.4271 156.219 98.7188C156.281 98.9896 156.323 99.2917 156.344 99.625C156.385 99.9375 156.438 100.24 156.5 100.531C156.771 100.26 157.115 100 157.531 99.75C157.948 99.5 158.385 99.2812 158.844 99.0938C159.323 98.9062 159.802 98.7604 160.281 98.6562C160.76 98.5312 161.208 98.4688 161.625 98.4688C161.854 98.4688 162.052 98.5625 162.219 98.75C162.385 98.9375 162.469 99.1458 162.469 99.375C162.469 99.5833 162.406 99.7917 162.281 100C162.156 100.188 161.958 100.281 161.688 100.281C161.188 100.281 160.667 100.375 160.125 100.562C159.583 100.729 159.073 100.948 158.594 101.219C158.135 101.49 157.729 101.792 157.375 102.125C157.042 102.458 156.812 102.781 156.688 103.094C156.646 103.51 156.615 104.01 156.594 104.594C156.594 105.156 156.552 105.698 156.469 106.219C156.406 106.719 156.292 107.146 156.125 107.5C155.958 107.854 155.708 108.031 155.375 108.031C155.167 108.031 154.958 107.958 154.75 107.812C154.562 107.667 154.469 107.438 154.469 107.125C154.469 107.042 154.479 106.969 154.5 106.906ZM168.625 99.5938H167.812C167.458 99.7812 167.188 100.031 167 100.344C166.812 100.656 166.667 100.99 166.562 101.344C166.479 101.677 166.427 102 166.406 102.312C166.385 102.625 166.375 102.875 166.375 103.062C166.375 103.479 166.427 103.875 166.531 104.25C166.656 104.625 166.823 104.958 167.031 105.25C167.26 105.521 167.521 105.74 167.812 105.906C168.104 106.073 168.438 106.156 168.812 106.156C169.479 106.156 169.99 106.01 170.344 105.719C170.719 105.427 170.99 105.062 171.156 104.625C171.344 104.188 171.458 103.719 171.5 103.219C171.542 102.698 171.562 102.219 171.562 101.781C171.521 101.51 171.427 101.24 171.281 100.969C171.135 100.677 170.948 100.427 170.719 100.219C170.51 100.01 170.271 99.8438 170 99.7188C169.75 99.5729 169.49 99.5 169.219 99.5C169.01 99.5 168.812 99.5312 168.625 99.5938ZM172.875 105.031C172.646 105.99 172.135 106.719 171.344 107.219C170.552 107.719 169.677 107.969 168.719 107.969C168.031 107.969 167.417 107.823 166.875 107.531C166.354 107.219 165.917 106.823 165.562 106.344C165.208 105.844 164.938 105.292 164.75 104.688C164.583 104.062 164.5 103.438 164.5 102.812C164.5 102.312 164.562 101.771 164.688 101.188C164.812 100.583 165.01 100.031 165.281 99.5312C165.552 99.0312 165.906 98.6146 166.344 98.2812C166.781 97.9271 167.312 97.75 167.938 97.75C168.271 97.75 168.5 97.7812 168.625 97.8438C168.729 97.8229 168.823 97.8125 168.906 97.8125C168.99 97.8125 169.083 97.8125 169.188 97.8125C170.167 97.8125 170.938 98.0208 171.5 98.4375C172.062 98.8542 172.51 99.3958 172.844 100.062C173.198 100.708 173.479 101.427 173.688 102.219C173.896 103.01 174.146 103.771 174.438 104.5C174.521 104.75 174.646 105.031 174.812 105.344C174.979 105.635 175.146 105.927 175.312 106.219C175.479 106.51 175.615 106.771 175.719 107C175.844 107.229 175.906 107.406 175.906 107.531C175.906 107.76 175.823 107.938 175.656 108.062C175.49 108.188 175.302 108.25 175.094 108.25C174.885 108.25 174.667 108.167 174.438 108C174.229 107.812 174.021 107.573 173.812 107.281C173.625 106.99 173.448 106.646 173.281 106.25C173.115 105.854 172.979 105.448 172.875 105.031ZM186.188 107.969C184.146 107.802 182.646 107.125 181.688 105.938C180.729 104.75 180.25 103.052 180.25 100.844V99.5312C179.438 99.5312 178.76 99.4583 178.219 99.3125C177.677 99.1458 177.406 98.8021 177.406 98.2812C177.448 98.0938 177.542 97.9375 177.688 97.8125C177.833 97.6667 178.042 97.5938 178.312 97.5938C178.562 97.5938 178.865 97.625 179.219 97.6875C179.573 97.75 179.958 97.7812 180.375 97.7812C180.375 97.1146 180.396 96.4375 180.438 95.75C180.479 95.0417 180.552 94.4062 180.656 93.8438C180.781 93.2812 180.938 92.8229 181.125 92.4688C181.312 92.0938 181.562 91.9062 181.875 91.9062C182.104 91.9062 182.312 92.0104 182.5 92.2188C182.688 92.4062 182.781 92.6667 182.781 93C182.781 93.5208 182.719 94.2188 182.594 95.0938C182.469 95.9688 182.375 96.8854 182.312 97.8438C182.479 97.8646 182.646 97.8854 182.812 97.9062C183 97.9062 183.188 97.9062 183.375 97.9062C183.708 97.9062 184.042 97.8958 184.375 97.875C184.729 97.8542 185.083 97.8229 185.438 97.7812C185.729 97.7812 185.969 97.8646 186.156 98.0312C186.344 98.1979 186.438 98.3854 186.438 98.5938C186.438 98.8854 186.354 99.1042 186.188 99.25C186.021 99.375 185.802 99.4688 185.531 99.5312C185.281 99.5729 184.979 99.5938 184.625 99.5938C184.292 99.5938 183.958 99.5938 183.625 99.5938H182.188C182.167 99.8229 182.156 100.042 182.156 100.25C182.156 100.458 182.156 100.667 182.156 100.875C182.156 101.625 182.219 102.302 182.344 102.906C182.49 103.49 182.729 104.01 183.062 104.469C183.396 104.927 183.833 105.302 184.375 105.594C184.917 105.885 185.583 106.094 186.375 106.219C186.604 106.26 186.771 106.354 186.875 106.5C186.979 106.646 187.031 106.812 187.031 107C187.031 107.25 186.958 107.479 186.812 107.688C186.688 107.875 186.479 107.969 186.188 107.969ZM191.438 99.0938C191.396 99.5729 191.354 100.073 191.312 100.594C191.292 101.115 191.281 101.646 191.281 102.188C191.281 102.958 191.312 103.729 191.375 104.5C191.458 105.271 191.5 106.021 191.5 106.75C191.5 107.167 191.396 107.479 191.188 107.688C191 107.896 190.792 108 190.562 108C190.354 108 190.177 107.927 190.031 107.781C189.906 107.615 189.833 107.365 189.812 107.031C189.75 106.094 189.688 105.24 189.625 104.469C189.583 103.677 189.562 102.885 189.562 102.094C189.562 101.781 189.552 101.385 189.531 100.906C189.531 100.406 189.552 99.9375 189.594 99.5C189.656 99.0417 189.76 98.6562 189.906 98.3438C190.073 98.0104 190.323 97.8438 190.656 97.8438C190.865 97.8438 191.042 97.9375 191.188 98.125C191.354 98.3125 191.438 98.5625 191.438 98.875V99.0938ZM189.938 91.9688C190.021 91.9271 190.094 91.9062 190.156 91.9062C190.24 91.9062 190.312 91.9167 190.375 91.9375C190.458 91.9583 190.521 91.9688 190.562 91.9688C190.667 91.9479 190.76 91.9375 190.844 91.9375C190.927 91.9167 191.021 91.9062 191.125 91.9062C191.812 91.9062 192.323 92.1354 192.656 92.5938C193.01 93.0521 193.188 93.5417 193.188 94.0625C193.188 94.3125 193.125 94.5833 193 94.875C192.896 95.1667 192.729 95.4375 192.5 95.6875C192.292 95.9167 192.021 96.1146 191.688 96.2812C191.354 96.4479 190.969 96.5312 190.531 96.5312C190.24 96.5312 189.969 96.4583 189.719 96.3125C189.469 96.1667 189.25 95.9896 189.062 95.7812C188.875 95.5521 188.729 95.3021 188.625 95.0312C188.521 94.7396 188.469 94.4583 188.469 94.1875C188.469 93.7708 188.604 93.3333 188.875 92.875C189.167 92.4167 189.521 92.1146 189.938 91.9688ZM190.688 93.5938H190.438C190.333 93.6354 190.26 93.7083 190.219 93.8125C190.177 93.9167 190.156 94.0208 190.156 94.125C190.156 94.3125 190.229 94.4896 190.375 94.6562C190.521 94.8021 190.656 94.875 190.781 94.875C191.094 94.875 191.302 94.7812 191.406 94.5938C191.51 94.3854 191.562 94.1979 191.562 94.0312C191.458 93.6979 191.25 93.5312 190.938 93.5312C190.896 93.5312 190.812 93.5521 190.688 93.5938ZM198.625 97.9062C198.875 97.8021 199.062 97.75 199.188 97.75C199.354 97.75 199.521 97.8021 199.688 97.9062C199.833 97.8854 199.99 97.8646 200.156 97.8438C200.344 97.8021 200.5 97.7812 200.625 97.7812C201.312 97.7812 201.938 97.9271 202.5 98.2188C203.062 98.4896 203.542 98.8646 203.938 99.3438C204.354 99.8229 204.677 100.385 204.906 101.031C205.135 101.677 205.25 102.365 205.25 103.094C205.25 103.74 205.125 104.365 204.875 104.969C204.646 105.552 204.312 106.073 203.875 106.531C203.458 106.99 202.969 107.354 202.406 107.625C201.844 107.896 201.25 108.031 200.625 108.031C199.854 108.031 199.146 107.906 198.5 107.656C197.854 107.406 197.302 107.062 196.844 106.625C196.385 106.188 196.021 105.667 195.75 105.062C195.5 104.458 195.375 103.802 195.375 103.094C195.375 102.531 195.438 101.958 195.562 101.375C195.688 100.771 195.885 100.219 196.156 99.7188C196.427 99.2188 196.76 98.8021 197.156 98.4688C197.573 98.1354 198.062 97.9479 198.625 97.9062ZM199 99.5312C198.562 99.5938 198.229 99.7604 198 100.031C197.771 100.281 197.594 100.583 197.469 100.938C197.365 101.292 197.302 101.667 197.281 102.062C197.26 102.438 197.25 102.781 197.25 103.094C197.25 103.469 197.312 103.854 197.438 104.25C197.562 104.625 197.76 104.969 198.031 105.281C198.323 105.573 198.677 105.812 199.094 106C199.51 106.188 200.021 106.281 200.625 106.281C201.083 106.281 201.49 106.198 201.844 106.031C202.219 105.844 202.521 105.604 202.75 105.312C203 105 203.188 104.656 203.312 104.281C203.438 103.906 203.5 103.51 203.5 103.094C203.5 102.01 203.24 101.125 202.719 100.438C202.198 99.7292 201.5 99.3438 200.625 99.2812H200.031C199.865 99.2812 199.688 99.3229 199.5 99.4062C199.312 99.4896 199.146 99.5312 199 99.5312ZM210.812 98.5312C211.146 98.3229 211.531 98.1771 211.969 98.0938C212.427 98.0104 212.896 97.9688 213.375 97.9688C214.042 98.0104 214.615 98.125 215.094 98.3125C215.573 98.5 215.969 98.7812 216.281 99.1562C216.594 99.5104 216.823 99.9792 216.969 100.562C217.115 101.125 217.188 101.823 217.188 102.656C217.188 103.51 217.146 104.312 217.062 105.062C216.979 105.792 216.865 106.438 216.719 107C216.573 107.542 216.396 107.969 216.188 108.281C216 108.615 215.781 108.781 215.531 108.781C215.344 108.781 215.177 108.719 215.031 108.594C214.885 108.469 214.812 108.271 214.812 108C214.812 107.729 214.844 107.385 214.906 106.969C214.99 106.531 215.073 106.073 215.156 105.594C215.26 105.094 215.344 104.594 215.406 104.094C215.49 103.573 215.531 103.094 215.531 102.656C215.531 102.052 215.479 101.573 215.375 101.219C215.292 100.844 215.156 100.552 214.969 100.344C214.802 100.115 214.583 99.9583 214.312 99.875C214.042 99.7708 213.729 99.6979 213.375 99.6562C212.938 99.6562 212.5 99.7292 212.062 99.875C211.625 100.021 211.25 100.094 210.938 100.094C210.75 100.094 210.594 100.021 210.469 99.875C210.365 99.7292 210.312 99.5625 210.312 99.375C210.312 99.2292 210.344 99.0833 210.406 98.9375C210.49 98.7708 210.625 98.6354 210.812 98.5312ZM209.438 98.2188C209.438 99.5938 209.448 100.99 209.469 102.406C209.49 103.802 209.583 105.073 209.75 106.219V106.438C209.75 106.792 209.656 107.062 209.469 107.25C209.302 107.417 209.115 107.5 208.906 107.5C208.719 107.5 208.542 107.417 208.375 107.25C208.208 107.083 208.104 106.823 208.062 106.469C207.958 105.469 207.875 104.438 207.812 103.375C207.75 102.312 207.719 101.219 207.719 100.094C207.719 99.8646 207.708 99.6042 207.688 99.3125C207.667 99.0208 207.667 98.75 207.688 98.5C207.729 98.2292 207.812 98.0104 207.938 97.8438C208.083 97.6562 208.302 97.5625 208.594 97.5625C208.802 97.5625 208.99 97.6354 209.156 97.7812C209.344 97.9062 209.438 98.0521 209.438 98.2188ZM222.312 99.7188C221.938 99.8854 221.75 100.167 221.75 100.562C221.75 100.812 221.938 101.115 222.312 101.469C222.708 101.823 223.146 102.188 223.625 102.562C224.125 102.917 224.604 103.26 225.062 103.594C225.521 103.927 225.833 104.198 226 104.406C226.312 104.844 226.469 105.292 226.469 105.75C226.469 106.229 226.365 106.615 226.156 106.906C225.969 107.198 225.698 107.427 225.344 107.594C225.01 107.76 224.615 107.875 224.156 107.938C223.719 108 223.26 108.031 222.781 108.031C222.448 108.031 222.042 108.021 221.562 108C221.083 107.979 220.615 107.927 220.156 107.844C219.719 107.76 219.344 107.646 219.031 107.5C218.719 107.333 218.562 107.125 218.562 106.875C218.562 106.667 218.625 106.448 218.75 106.219C218.875 105.99 219.052 105.875 219.281 105.875C219.302 105.875 219.323 105.885 219.344 105.906C219.365 105.906 219.396 105.906 219.438 105.906C219.896 106.031 220.479 106.125 221.188 106.188C221.896 106.25 222.583 106.281 223.25 106.281C223.604 106.281 223.896 106.229 224.125 106.125C224.354 106 224.469 105.823 224.469 105.594C224.469 105.385 224.365 105.167 224.156 104.938C223.948 104.688 223.688 104.448 223.375 104.219C223.083 103.99 222.771 103.771 222.438 103.562C222.125 103.354 221.854 103.167 221.625 103C220.958 102.542 220.469 102.115 220.156 101.719C219.865 101.302 219.719 100.854 219.719 100.375C219.719 99.8333 219.854 99.3958 220.125 99.0625C220.417 98.7083 220.781 98.4271 221.219 98.2188C221.656 98.0104 222.135 97.875 222.656 97.8125C223.198 97.7292 223.719 97.6875 224.219 97.6875C224.51 97.6875 224.802 97.6979 225.094 97.7188C225.385 97.7396 225.646 97.7917 225.875 97.875C226.104 97.9375 226.292 98.0417 226.438 98.1875C226.583 98.3125 226.656 98.4896 226.656 98.7188C226.656 98.9479 226.604 99.1458 226.5 99.3125C226.417 99.4792 226.271 99.5625 226.062 99.5625C225.875 99.5625 225.594 99.5312 225.219 99.4688C224.865 99.4062 224.448 99.375 223.969 99.375C223.323 99.375 222.771 99.4896 222.312 99.7188Z" fill="#FAFAFA"/>
<defs>
<linearGradient id="paint0_linear" x1="-41" y1="-38" x2="325" y2="235.5" gradientUnits="userSpaceOnUse">
<stop stop-color="#333333"/>
<stop offset="1" stop-color="#4F4F4F"/>
</linearGradient>
</defs>
</svg>
