<svg width="29" height="31" viewBox="0 0 29 31" fill="none" xmlns="http://www.w3.org/2000/svg">
<path d="M10.6923 25.8624C3.76923 27.9312 3.76923 22.4144 1 21.7248M20.3846 30V24.6625C20.4366 24.0049 20.3474 23.3437 20.1229 22.7231C19.8985 22.1024 19.5441 21.5365 19.0831 21.0628C23.4308 20.5801 28 18.9389 28 11.4085C27.9996 9.48289 27.256 7.63115 25.9231 6.23651C26.5543 4.55183 26.5096 2.68971 25.7985 1.03695C25.7985 1.03695 24.1646 0.554235 20.3846 3.07816C17.2111 2.22143 13.8658 2.22143 10.6923 3.07816C6.91231 0.554235 5.27846 1.03695 5.27846 1.03695C4.56729 2.68971 4.52266 4.55183 5.15385 6.23651C3.81095 7.64149 3.06657 9.50997 3.07692 11.4499C3.07692 18.9251 7.64615 20.5663 11.9938 21.1042C11.5383 21.5731 11.187 22.1323 10.9627 22.7453C10.7385 23.3584 10.6463 24.0116 10.6923 24.6625V30" stroke="black" stroke-width="1.5" stroke-linecap="round" stroke-linejoin="round"/>
</svg>
