<svg width="20" height="20" viewBox="0 0 20 20" fill="none" xmlns="http://www.w3.org/2000/svg">
<path d="M2.0254 0.5H17.9746C18.3792 0.5 18.7672 0.660711 19.0532 0.946778C19.3393 1.23285 19.5 1.62084 19.5 2.0254V17.9746C19.5 18.3792 19.3393 18.7672 19.0532 19.0532C18.7672 19.3393 18.3792 19.5 17.9746 19.5H2.0254C1.62084 19.5 1.23285 19.3393 0.946778 19.0532C0.660711 18.7672 0.5 18.3792 0.5 17.9746V2.0254C0.5 1.62084 0.660711 1.23285 0.946778 0.946778C1.23285 0.660711 1.62084 0.5 2.0254 0.5Z" stroke="black"/>
<circle cx="10" cy="11" r="4.5" stroke="black"/>
<circle cx="16" cy="4" r="1.5" stroke="black"/>
</svg>
