<svg width="53" height="85" viewBox="0 0 53 85" fill="none" xmlns="http://www.w3.org/2000/svg">
<path d="M32.5688 80.18H20.2517V84.4L28.2697 84.3472L32.5688 80.18Z" fill="#F2F2F2"/>
<path d="M50.851 47.3431L52.75 39.4306V27.5619L45.576 15.2975L45.0485 9.8115L43.5187 11.3413L37.5052 2.66388L36.925 5.61788L29.6191 1.08138L29.118 4.03538L23.5001 0L22.2078 5.03763L13.293 4.03538L14.4271 6.2245L10.55 6.6465V9.67963L8.04438 11.3149L9.44225 12.6336L6.09263 13.8205L7.43775 15.3239L0 27.5883V40.0636L2.05725 46.9739L3.165 44.7056V38.191L5.8025 34.5776V25.6101L10.7874 18.99H26.5069L42.1736 18.8581L47.2112 25.6629V34.4985L49.8487 38.5866V44.6001L50.851 47.3431Z" fill="#F2F2F2"/>
<path d="M47.0793 39.9845L46.0507 38.1382L42.833 36.3184L33.6017 37.1887L32.283 39.668L34.5512 39.9845L44.5473 38.824L47.0793 39.9845Z" fill="#F2F2F2"/>
<path d="M5.96079 39.9845L6.98942 38.1382L10.2072 36.3184L19.412 37.1887L20.7308 39.668L18.4625 39.9845L8.49279 38.824L5.96079 39.9845Z" fill="#F2F2F2"/>
<path d="M37.6899 66.2013L29.8565 63.5374L27.43 65.0144V59.8713L30.806 60.6361L39.4834 62.7989L41.3033 67.7046L37.6899 66.2013ZM15.3503 66.2013L23.1573 63.5374L25.5838 65.0144V59.8713L22.2078 60.6361L13.5304 62.7989L11.7105 67.7046L15.3503 66.2013Z" fill="#F2F2F2"/>
<path d="M43.5188 62.034L40.301 70.2366L35.659 74.905H17.3548L12.9765 70.5004L9.49502 62.034L2.69026 54.7281L3.08589 62.034L6.11902 71.7928L14.2425 79.9954V80.0745L18.5944 84.2945L26.6915 84.4L34.7623 84.2945L46.8684 71.7928L49.9279 62.034L50.3499 54.7281L43.5188 62.034Z" fill="#F2F2F2"/>
</svg>
