<svg width="32" height="32" viewBox="0 0 32 32" fill="none" xmlns="http://www.w3.org/2000/svg">
<path d="M16.584 17.5095C16.644 16.449 17.1657 15.5127 17.9552 14.851C18.7287 14.2005 19.7672 13.8027 20.9075 13.8027C22.0417 13.8027 23.08 14.2002 23.8525 14.851C24.6432 15.5127 25.1617 16.449 25.2237 17.5095C25.2837 18.597 24.843 19.612 24.0725 20.3637C23.283 21.1262 22.1657 21.608 20.9075 21.608C19.6482 21.608 18.526 21.1292 17.7415 20.3637C16.968 19.6122 16.5282 18.6027 16.59 17.5145L16.584 17.5095Z" fill="#235785"/>
<path d="M9.81132 19.7493C9.81832 20.1643 9.95232 20.9718 10.1513 21.6003C10.5718 22.9343 11.2856 24.1686 12.2738 25.2501C13.2893 26.3664 14.5423 27.2639 15.9863 27.9026C17.5046 28.5701 19.1526 28.9119 20.8626 28.9119C22.5726 28.9096 24.2206 28.5619 25.7386 27.8864C27.1826 27.2409 28.4361 26.3444 29.4511 25.2221C30.4446 24.1286 31.1561 22.8953 31.5738 21.5603C31.783 20.8972 31.9168 20.2127 31.9726 19.5196C32.0246 18.8471 32.0026 18.1683 31.9068 17.4896C31.7194 16.1818 31.2579 14.9282 30.5526 13.8111C29.9091 12.7736 29.0736 11.8711 28.0801 11.1078L28.0831 11.1068L18.0943 3.48031C18.0853 3.47331 18.0773 3.46631 18.0683 3.46031C17.4136 2.95981 16.3073 2.96181 15.5908 3.46231C14.8623 3.97007 14.7783 4.80857 15.4268 5.33632L15.4238 5.33832L19.5943 8.70932L6.89707 8.72207H6.88007C5.83082 8.72307 4.82032 9.40682 4.62257 10.2753C4.41757 11.1556 5.13132 11.8903 6.22557 11.8903L6.22357 11.8943L12.6576 11.8823L1.14507 20.6298C1.13107 20.6408 1.11507 20.6518 1.10107 20.6628C0.0173206 21.4863 -0.332429 22.8603 0.350071 23.7238C1.04457 24.6043 2.51657 24.6103 3.61182 23.7288L9.87632 18.6263C9.87632 18.6263 9.78432 19.3158 9.79232 19.7256L9.81132 19.7493ZM25.9513 22.0541C24.6593 23.3611 22.8473 24.1066 20.8946 24.1066C18.9368 24.1096 17.1248 23.3771 15.8326 22.0711C15.2011 21.4313 14.7383 20.7028 14.4506 19.9233C14.1693 19.1563 14.0608 18.3366 14.1328 17.5228C14.2012 16.7288 14.438 15.9585 14.8273 15.2631C15.2041 14.5846 15.7248 13.9681 16.3623 13.4463C17.6206 12.4318 19.2173 11.8763 20.8873 11.8763C22.5646 11.8743 24.1616 12.4198 25.4198 13.4353C26.0573 13.9541 26.5761 14.5676 26.9548 15.2461C27.345 15.9414 27.5815 16.7123 27.6483 17.5068C27.7193 18.3203 27.6108 19.1394 27.3306 19.9063C27.0438 20.6918 26.5801 21.4203 25.9473 22.0601L25.9513 22.0541Z" fill="#E87500"/>
</svg>
