<svg width="32" height="32" viewBox="0 0 32 32" fill="none" xmlns="http://www.w3.org/2000/svg">
<path fill-rule="evenodd" clip-rule="evenodd" d="M30.8158 0H1.27734L3.73888 28.3077L16.0466 32L28.3542 28.3077L30.8158 0Z" fill="#1572B6"/>
<path fill-rule="evenodd" clip-rule="evenodd" d="M26.7472 18.4648L26.9613 16.0033L27.2823 12.311L27.6033 8.61869L27.9243 4.92638L28.1384 2.46484H16.0449V29.5418L23.5177 27.2998L26.0452 26.5416L26.375 22.7504L26.7048 18.9591L26.7472 18.4648Z" fill="#33A9DC"/>
<path fill-rule="evenodd" clip-rule="evenodd" d="M13.5522 25.0966L12.2885 24.7176L8.24466 23.5045L7.91481 19.7133L7.80601 18.4603H11.7445L11.9591 20.9263L13.2229 21.3054L16.0467 22.1526V25.845L13.5522 25.0966ZM6.94989 8.61418H10.8883H12.1191H16.0467V4.92188H11.7981H10.5674H6.62891L6.94989 8.61418Z" fill="#EBEBEB"/>
<path fill-rule="evenodd" clip-rule="evenodd" d="M16.0449 22.1526L20.133 20.9263L20.3472 18.4603L20.5613 15.9988H16.0449V12.3065H20.8823L21.2033 8.61418H16.0449V4.92188H21.5243H25.4628L25.1418 8.61418L24.8208 12.3065L24.4998 15.9988L24.2856 18.4603L24.1768 19.7133L23.847 23.5045L19.8032 24.7176L16.0449 25.845V22.1526Z" fill="white"/>
<path fill-rule="evenodd" clip-rule="evenodd" d="M16.048 16.0009H12.7624L12.4414 12.3086H16.048V16.0009Z" fill="#EBEBEB"/>
</svg>
