<svg width="32" height="32" viewBox="0 0 32 32" fill="none" xmlns="http://www.w3.org/2000/svg">
<g clip-path="url(#clip0_5174_475)">
<path d="M11.373 32.25C14.348 32.25 16.748 29.85 16.748 26.875V21.5H11.373C8.39805 21.5 5.99805 23.9 5.99805 26.875C5.99805 29.85 8.39805 32.25 11.373 32.25Z" fill="#0ACF83"/>
<path d="M5.99805 16.127C5.99805 13.152 8.39805 10.752 11.373 10.752H16.748V21.502H11.373C8.39805 21.502 5.99805 19.102 5.99805 16.127Z" fill="#A259FF"/>
<path d="M5.99805 5.37501C5.99805 2.4 8.39805 0 11.373 0H16.748V10.75H11.373C8.39805 10.75 5.99805 8.35001 5.99805 5.37501Z" fill="#F24E1E"/>
<path d="M16.75 0H22.125C25.1 0 27.5 2.4 27.5 5.37501C27.5 8.35001 25.1 10.75 22.125 10.75H16.75V0Z" fill="#FF7262"/>
<path d="M27.5 16.127C27.5 19.102 25.1 21.502 22.125 21.502C19.15 21.502 16.75 19.102 16.75 16.127C16.75 13.152 19.15 10.752 22.125 10.752C25.1 10.752 27.5 13.152 27.5 16.127Z" fill="#1ABCFE"/>
</g>
<defs>
<clipPath id="clip0_5174_475">
<rect width="32" height="32" fill="white"/>
</clipPath>
</defs>
</svg>
