<svg width="32" height="32" viewBox="0 0 32 32" fill="none" xmlns="http://www.w3.org/2000/svg">
<path fill-rule="evenodd" clip-rule="evenodd" d="M30.7708 0H1.23242L3.69396 28.3077L16.0016 32L28.3093 28.3077L30.7708 0Z" fill="#E44D26"/>
<path fill-rule="evenodd" clip-rule="evenodd" d="M12.2435 24.7215L8.19974 23.5084L7.86989 19.7172L7.76109 18.4642H11.6995L11.9142 20.9302L16.0018 22.1566V25.8489L12.2435 24.7215ZM16.0018 8.61809H10.8434L11.1644 12.3104H16.0018V16.0027H11.4854H7.54694L7.22595 12.3104L6.90497 8.61809L6.58398 4.92578H10.5224H16.0018V8.61809Z" fill="#EBEBEB"/>
<path fill-rule="evenodd" clip-rule="evenodd" d="M26.7062 18.4609L26.9203 15.9994L27.2413 12.3071L27.5623 8.61478L27.8833 4.92248L28.0974 2.46094H16.0039V29.5379L23.4766 27.2959L26.0041 26.5377L26.334 22.7465L26.6638 18.9552L26.7062 18.4609Z" fill="#F16529"/>
<path fill-rule="evenodd" clip-rule="evenodd" d="M16.0039 8.61809H21.1623H25.1008L25.4217 4.92578H21.4833H16.0039V8.61809ZM20.5203 16.0027H16.0039V12.3104H20.8413H24.7798L24.4588 16.0027L24.2446 18.4642L24.1358 19.7172L23.806 23.5084L19.7622 24.7215L16.0039 25.8489V22.1566L20.092 20.9302L20.3062 18.4642L20.5203 16.0027Z" fill="white"/>
</svg>
