<svg width="32" height="32" viewBox="0 0 32 32" fill="none" xmlns="http://www.w3.org/2000/svg">
<g clip-path="url(#clip0_5174_467)">
<path fill-rule="evenodd" clip-rule="evenodd" d="M0.941406 0.941406H31.0591V31.0591H0.941406V0.941406Z" fill="#F7DF1E"/>
<path fill-rule="evenodd" clip-rule="evenodd" d="M14.4947 24.658V14.8697H17.13V24.658C17.13 28.4227 11.8594 30.6815 8.84766 26.1639L11.1065 24.658C12.2359 26.9168 14.4947 26.1639 14.4947 24.658ZM25.7888 18.258C24.283 16.1874 22.4006 17.1286 22.4006 18.4462C22.4006 20.5168 28.6124 20.1403 28.6124 24.658C28.4241 29.9286 21.083 29.7403 18.8241 25.7874L21.083 24.4697C22.7771 27.105 25.7888 26.1639 25.7888 24.658C25.6006 22.0227 19.7653 23.3403 19.7653 18.4462C19.5771 14.6815 25.2241 12.6109 27.8594 16.9403L25.7888 18.258Z" fill="#323232"/>
</g>
<defs>
<clipPath id="clip0_5174_467">
<rect width="32" height="32" fill="white"/>
</clipPath>
</defs>
</svg>
