<svg width="32" height="32" viewBox="0 0 32 32" fill="none" xmlns="http://www.w3.org/2000/svg">
<g clip-path="url(#clip0_5174_471)">
<path fill-rule="evenodd" clip-rule="evenodd" d="M30.1469 15.7755C30.1469 13.9617 28.7755 12.4359 26.9343 11.9999L31.058 0.943359H10.6223L14.7556 12.0349C12.9719 12.5059 11.658 14.0054 11.658 15.7842C11.658 17.0921 12.3772 18.252 13.4706 18.9669C13.0389 19.5248 12.5406 20.0395 11.9748 20.5277C10.9102 21.4347 9.73084 22.1323 8.45546 22.5942C7.30457 21.8879 6.80623 20.6411 7.25679 19.5248C9.01163 19.0365 10.287 17.5453 10.287 15.7929C10.287 13.6391 8.35949 11.8953 6.00069 11.8953C3.63185 11.8953 1.70473 13.6481 1.70473 15.8015C1.70473 16.8654 2.1842 17.842 2.9512 18.5396L2.75001 18.9146C2.10751 20.1178 1.37866 21.4783 1.10078 23.0042C0.54461 26.0562 1.45576 28.5063 3.65153 29.8928C4.88795 30.6687 6.24966 31.061 7.71698 31.061C10.2392 31.061 12.7996 29.9101 15.2737 28.7939C17.0381 28.0003 18.86 27.1721 20.6534 26.7711C21.3152 26.6228 22.0055 26.5358 22.7343 26.4398C24.2109 26.2478 25.7357 26.0476 27.107 25.3236C28.7084 24.4777 29.8015 23.0651 30.1183 21.4433C30.3581 20.1964 30.1183 18.9409 29.5048 17.842C29.927 17.2257 30.1497 16.508 30.1469 15.7755ZM28.2768 15.7755C28.2768 16.9874 27.1929 17.973 25.8601 17.973C24.5273 17.973 23.4435 16.9878 23.4435 15.7755C23.4435 15.3833 23.5588 15.0083 23.7599 14.6857C23.8366 14.5637 23.9326 14.4417 24.0286 14.3371C24.1246 14.2324 24.2394 14.1364 24.3643 14.0494L24.3739 14.0408C24.4556 13.9864 24.5387 13.934 24.6233 13.8838C24.6233 13.8838 24.633 13.8838 24.633 13.8751C24.6715 13.8578 24.7097 13.8315 24.7482 13.8141C24.7578 13.8141 24.7675 13.8055 24.7771 13.8055C24.8157 13.7882 24.8635 13.7705 24.9112 13.7531C24.959 13.7358 25.0072 13.7181 25.0454 13.7008C25.055 13.7008 25.0646 13.6922 25.0743 13.6922C25.1128 13.6835 25.151 13.6662 25.1891 13.6571C25.1988 13.6571 25.218 13.6485 25.2277 13.6485L25.3618 13.6225H25.3714L25.5152 13.5962C25.5248 13.5962 25.5441 13.5962 25.5537 13.5875C25.5919 13.5875 25.6304 13.5788 25.6686 13.5788H25.7164C25.7642 13.5788 25.8124 13.5702 25.8698 13.5702H25.9943C26.0328 13.5702 26.0613 13.5702 26.0999 13.5788H26.1192C26.1958 13.5875 26.2725 13.5962 26.3492 13.6139C27.4423 13.8232 28.2768 14.7124 28.2768 15.7763V15.7755ZM13.2979 2.68717H28.3824L24.9205 11.9736C24.7767 11.9999 24.6326 12.0432 24.4888 12.0869L20.8446 5.32924L17.1907 12.0432C17.047 11.9995 16.8936 11.9736 16.7402 11.9472L13.2979 2.68717ZM20.1547 15.017C19.9724 14.1974 19.5122 13.4648 18.86 12.9242L20.845 9.27917L22.8492 13.0025C22.2545 13.5431 21.8232 14.232 21.6505 15.0166L20.1547 15.017ZM15.3504 13.6391L15.4845 13.6131H15.5134C15.5519 13.6044 15.5901 13.6044 15.6286 13.5958H15.6672C15.7057 13.5958 15.7342 13.5871 15.7728 13.5871H15.8114H15.9551H16.0989H16.1467C16.1848 13.5871 16.2137 13.5958 16.2426 13.5958C16.2591 13.5944 16.2757 13.5974 16.2904 13.6044C16.329 13.6131 16.3575 13.6131 16.396 13.6218C16.4057 13.6218 16.4153 13.6218 16.4342 13.6304L16.5683 13.6568H16.5779C16.6176 13.6644 16.6563 13.6762 16.6932 13.6918C16.7028 13.6918 16.7125 13.7004 16.7317 13.7004C16.7607 13.7091 16.7988 13.7178 16.8277 13.7355C16.8374 13.7355 16.847 13.7441 16.8566 13.7441C16.8948 13.7614 16.9333 13.7705 16.9715 13.7878H16.9811C17.0255 13.8027 17.0675 13.8232 17.106 13.8488H17.1156C17.1542 13.8661 17.1923 13.8924 17.2309 13.9098C17.2405 13.9098 17.2405 13.9184 17.2502 13.9184C17.2883 13.9357 17.3172 13.9621 17.3558 13.9794L17.3654 13.9881C17.4783 14.0675 17.5871 14.152 17.6915 14.2411L17.7011 14.2497C17.7971 14.3457 17.8931 14.4504 17.9698 14.5637C18.2191 14.9123 18.3629 15.3223 18.3629 15.7669C18.3629 16.9787 17.2791 17.9643 15.9463 17.9643C14.6135 17.9643 13.5297 16.9791 13.5297 15.7669C13.52 14.7467 14.297 13.8834 15.3516 13.6395L15.3504 13.6391ZM5.91435 13.5781C7.24715 13.5781 8.33098 14.5633 8.33098 15.7755C8.33098 16.9878 7.24755 17.973 5.91435 17.973C4.58115 17.973 3.49773 16.9878 3.49773 15.7755C3.49773 14.5633 4.58155 13.5781 5.91435 13.5781ZM28.2197 21.138C28.0089 22.2542 27.2512 23.2308 26.1388 23.8151C25.0935 24.3643 23.8085 24.5387 22.4565 24.7133C21.718 24.8093 20.9414 24.914 20.1932 25.0796C18.1987 25.5243 16.2808 26.3962 14.4203 27.2334C12.0423 28.306 9.7979 29.3176 7.71698 29.3176C6.63315 29.3176 5.66498 29.0386 4.74419 28.4543C2.63436 27.1288 2.73997 24.6437 2.98934 23.2835C3.21944 22.0103 3.86195 20.8157 4.47554 19.6735C4.51409 19.6039 4.5426 19.5429 4.58115 19.4729C4.79197 19.5425 5.01284 19.5948 5.24293 19.6299C4.87871 21.4783 5.91435 23.3882 7.9278 24.3297L8.29243 24.504L8.68556 24.3734C10.3637 23.8328 11.9174 22.9522 13.2887 21.775C14.0653 21.1124 14.7271 20.3971 15.2833 19.6212C15.5037 19.6562 15.7246 19.6649 15.9451 19.6649C17.9397 19.6649 19.6178 18.418 20.0973 16.7438H21.7083C22.1878 18.4267 23.866 19.6649 25.8605 19.6649C26.6564 19.6649 27.3949 19.4642 28.0278 19.1243C28.2772 19.7782 28.3539 20.4585 28.2197 21.1384V21.138Z" fill="#99424F"/>
</g>
<defs>
<clipPath id="clip0_5174_471">
<rect width="32" height="32" fill="white"/>
</clipPath>
</defs>
</svg>
