<svg width="32" height="32" viewBox="0 0 32 32" fill="none" xmlns="http://www.w3.org/2000/svg">
<g clip-path="url(#clip0_5174_470)">
<path d="M32.002 29.5499V2.45232C32.002 1.33981 31.262 0.402313 30.247 0.101562L29.0957 0.791064L16.3125 14.4211L15.9112 15.6738L15.6777 16.8761L19.664 31.7736L20.2802 32.0011H29.5507C30.9042 32.0011 32.002 30.9036 32.002 29.5499Z" fill="#EA6618"/>
<path d="M5.05067e-07 2.45125V29.5488C-0.000254901 29.9464 0.0963601 30.3381 0.281488 30.69C0.466616 31.0418 0.734683 31.3433 1.0625 31.5683L1.84875 31.1925L15.3788 16.705L15.9093 15.6728L15.9298 14.6738L12.2473 0.663001L11.6893 0H2.45125C1.0975 0 5.05067e-07 1.0975 5.05067e-07 2.45125Z" fill="#D65813"/>
<path d="M15.9092 15.6728L30.245 0.100501C30.0189 0.033608 29.7844 -0.000242449 29.5487 1.30709e-06H11.6895L15.9092 15.6728Z" fill="#E05E11"/>
<path d="M2.45125 32.0011H20.2783L15.9093 15.6738L1.0625 31.5694C1.47063 31.8514 1.95516 32.002 2.45125 32.0011Z" fill="#DE5C16"/>
<path d="M11.8649 12.1281H13.6424C14.3514 14.8009 15.1582 17.1466 16.0574 19.2639C17.0762 16.8819 17.8232 14.5344 18.4549 12.1281H20.1357C19.3827 15.1181 18.1522 18.1331 16.7442 21.2441H15.2574C13.9049 18.2959 12.7537 15.2646 11.8649 12.1281ZM5.99992 7.49609H9.95317V24.4504H5.98242V23.1436H8.41592V8.7676H5.99992V7.49609ZM26.0204 8.7676H23.6044V23.1436H26.0379V24.4504H22.0674V7.49609H26.0204V8.7676Z" fill="white"/>
</g>
<defs>
<clipPath id="clip0_5174_470">
<rect width="32" height="32" fill="white"/>
</clipPath>
</defs>
</svg>
