<svg width="32" height="32" viewBox="0 0 32 32" fill="none" xmlns="http://www.w3.org/2000/svg">
<path d="M28.1928 7.58303L17.1685 1.18177C16.4733 0.785765 15.568 0.785765 14.8673 1.18177L3.72525 7.58303C3.00775 7.99578 2.5 8.77153 2.5 9.60128V22.3868C2.5 23.2166 3.021 23.9926 3.7385 24.4076L6.68225 26.0796C8.08925 26.7726 8.5865 26.7726 9.22675 26.7726C11.31 26.7726 12.5 25.5128 12.5 23.3155V10.693C12.5 10.5148 12.4073 10.2495 12.2323 10.2495H10.8265C10.6485 10.2495 10.25 10.5148 10.25 10.6928V23.3153C10.25 24.2893 9.369 25.2586 7.7225 24.4353L4.68075 22.6821C4.57475 22.6245 4.5 22.5088 4.5 22.3868V9.60128C4.5 9.48078 4.63875 9.35978 4.7455 9.29803L15.8515 2.90777C15.9553 2.84902 16.1078 2.84902 16.2113 2.90777L27.1818 9.29653C27.2868 9.35978 27.2498 9.47703 27.2498 9.60128V22.3868C27.2498 22.5088 27.2955 22.6276 27.1918 22.6863L16.1703 29.0803C16.0758 29.1371 15.9585 29.1371 15.855 29.0803L13.0283 27.3931C12.943 27.3436 12.8418 27.3258 12.76 27.3716C11.9735 27.8173 11.8285 27.8766 11.0908 28.1323C10.9093 28.1956 10.6415 28.3053 11.1933 28.6146L14.8928 30.8031C15.2459 31.0071 15.6466 31.1145 16.0545 31.1146C16.465 31.1146 16.867 31.0081 17.2213 30.8031L28.1925 24.4076C28.91 23.9896 29.25 23.2166 29.25 22.3868V9.60128C29.25 8.77153 28.91 7.99778 28.1928 7.58303ZM19.4775 20.3608C16.546 20.3608 15.9003 19.552 15.685 18.0943C15.66 17.9373 15.5268 17.7495 15.367 17.7495H13.9343C13.757 17.7495 13.6145 17.9645 13.6145 18.141C13.6145 20.0075 14.6293 22.269 19.4778 22.269C22.9875 22.269 24.9998 20.9053 24.9998 18.4918C24.9998 16.0988 23.383 15.4708 19.9793 15.0203C16.5388 14.5655 16.1893 14.3358 16.1893 13.5298C16.1893 12.8653 16.4853 11.979 19.0328 11.979C21.309 11.979 22.148 12.4675 22.4933 14.0018C22.5228 14.146 22.6545 14.2495 22.8033 14.2495H24.2418C24.3303 14.2495 24.4148 14.2138 24.4768 14.1505C24.5368 14.0825 24.5685 13.9973 24.5605 13.9058C24.3378 11.2638 22.5825 10.0325 19.0325 10.0325C15.8748 10.0325 13.991 11.366 13.991 13.6013C13.991 16.0258 15.8653 16.6958 18.8965 16.9955C22.5228 17.351 22.8048 17.881 22.8048 18.5943C22.8048 19.833 21.8103 20.3608 19.4775 20.3608Z" fill="#83CD29"/>
</svg>
