<svg width="32" height="32" viewBox="0 0 32 32" fill="none" xmlns="http://www.w3.org/2000/svg">
<path d="M10.9128 17.7258C9.88177 18.0183 9.20552 18.5313 8.76002 19.0438C9.18677 18.6703 9.75827 18.3275 10.5293 18.109C11.318 17.8855 11.9908 17.887 12.5465 17.9943V17.5595C12.0723 17.5163 11.5285 17.5508 10.9125 17.7255L10.9128 17.7258ZM8.71302 14.0713L4.88452 15.08C4.88452 15.08 4.95427 15.1785 5.08352 15.31L8.32952 14.4548C8.32952 14.4548 8.28352 15.0475 7.88402 15.5778C8.63952 15.006 8.71302 14.0713 8.71302 14.0713ZM11.9178 23.069C6.53001 24.5203 3.67952 18.2763 2.81652 15.0355C2.41777 13.5395 2.24377 12.4065 2.19727 11.6755C2.19287 11.6094 2.19379 11.543 2.20002 11.477C1.92052 11.494 1.78677 11.6393 1.81402 12.059C1.86052 12.7898 2.03452 13.9225 2.43327 15.419C3.29577 18.6593 6.14676 24.9033 11.5345 23.452C12.7073 23.136 13.5883 22.5608 14.2495 21.826C13.64 22.3765 12.877 22.8103 11.9178 23.069ZM12.9303 10.25V10.6335H15.0435C15.0003 10.4978 14.9565 10.3755 14.913 10.25H12.9303Z" fill="#2D4552"/>
<path d="M15.5178 13.4072C16.4683 13.6772 16.9708 14.3434 17.2366 14.9332L18.2963 15.2342C18.2963 15.2342 18.1518 13.1704 16.2851 12.6402C14.5388 12.1439 13.4641 13.6104 13.3333 13.8002C13.8413 13.4382 14.5831 13.1419 15.5178 13.4072ZM23.9531 14.9427C22.2051 14.4442 21.1308 15.9137 21.0021 16.1009C21.5106 15.7394 22.2518 15.4429 23.1863 15.7094C24.1353 15.9797 24.6373 16.6452 24.9038 17.2354L25.9651 17.5374C25.9651 17.5374 25.8181 15.4732 23.9531 14.9427ZM22.9003 20.3842L14.0851 17.9197C14.0851 17.9197 14.1806 18.4034 14.5466 19.0299L21.9686 21.1049C22.5796 20.7514 22.9003 20.3842 22.9003 20.3842ZM16.7888 25.6887C9.80881 23.8174 10.6528 14.9239 11.7821 10.7097C12.2471 8.97292 12.7251 7.68217 13.1216 6.81666C12.8851 6.76791 12.6891 6.89266 12.4956 7.28616C12.0746 8.13992 11.5363 9.53017 11.0153 11.4762C9.88631 15.6904 9.04231 24.5834 16.0221 26.4547C19.3118 27.3359 21.8748 25.9964 23.7853 23.8929C21.9718 25.5354 19.6566 26.4564 16.7888 25.6887Z" fill="#2D4552"/>
<path d="M12.9352 20.9864V19.1917L7.94892 20.6057C7.94892 20.6057 8.31742 18.4649 10.9179 17.7272C11.7067 17.5037 12.3794 17.5052 12.9352 17.6124V10.2514H15.4319C15.1602 9.41142 14.8972 8.76467 14.6762 8.31542C14.3109 7.57167 13.9362 8.06467 13.0859 8.77592C12.4869 9.27617 10.9734 10.3437 8.69567 10.9574C6.41792 11.5717 4.57667 11.4087 3.80817 11.2757C2.71892 11.0877 2.14917 10.8487 2.20267 11.6769C2.24917 12.4077 2.42317 13.5407 2.82192 15.0369C3.68442 18.2774 6.53542 24.5212 11.9232 23.0699C13.3304 22.6907 14.3239 21.9412 15.0124 20.9859H12.9352V20.9864ZM4.88892 15.0814L8.71792 14.0727C8.71792 14.0727 8.60642 15.5457 7.17092 15.9239C5.73517 16.3019 4.88892 15.0814 4.88892 15.0814Z" fill="#E2574C"/>
<path d="M27.3412 10.3348C26.3459 10.5093 23.9582 10.7265 21.0072 9.93577C18.0554 9.14527 16.0972 7.76277 15.3212 7.11276C14.2212 6.19151 13.7374 5.55126 13.2612 6.51976C12.8402 7.37401 12.3019 8.76402 11.7809 10.7103C10.6519 14.9245 9.80793 23.8175 16.7877 25.6888C23.7657 27.5585 27.4807 19.4345 28.6099 15.22C29.1309 13.2743 29.3594 11.801 29.4224 10.851C29.4942 9.77477 28.7549 10.0873 27.3414 10.335L27.3412 10.3348ZM13.3182 13.8213C13.3182 13.8213 14.4182 12.1105 16.2837 12.6408C18.1504 13.171 18.2949 15.2348 18.2949 15.2348L13.3182 13.8213ZM17.8719 21.4978C14.5907 20.5365 14.0844 17.92 14.0844 17.92L22.8992 20.3845C22.8992 20.384 21.1199 22.447 17.8719 21.4978ZM20.9884 16.1203C20.9884 16.1203 22.0869 14.4108 23.9519 14.9425C25.8169 15.4735 25.9639 17.5373 25.9639 17.5373L20.9884 16.1203Z" fill="#2EAD33"/>
<path d="M11.189 19.6852L7.94527 20.6045C7.94527 20.6045 8.29777 18.5972 10.6873 17.8015L8.85052 10.9082L8.69177 10.9565C6.41402 11.5707 4.57277 11.4077 3.80427 11.2747C2.71502 11.087 2.14527 10.8477 2.19877 11.6762C2.24527 12.407 2.41927 13.5397 2.81802 15.0362C3.68052 18.2765 6.53152 24.5205 11.9193 23.0692L12.078 23.0195L11.189 19.6852ZM4.88552 15.0807L8.71452 14.072C8.71452 14.072 8.60302 15.545 7.16752 15.9232C5.73177 16.3012 4.88552 15.0807 4.88552 15.0807Z" fill="#D65348"/>
<path d="M18.0199 21.534L17.8714 21.498C14.5902 20.537 14.0839 17.9203 14.0839 17.9203L18.6294 19.1908L21.0359 9.94352L21.0069 9.93577C18.0552 9.14527 16.0969 7.76277 15.3209 7.11276C14.2209 6.19151 13.7372 5.55126 13.2609 6.51976C12.8404 7.37401 12.3019 8.76402 11.7809 10.7103C10.6519 14.9245 9.80793 23.8175 16.7877 25.6888L16.9307 25.721L18.0199 21.534ZM13.3182 13.8215C13.3182 13.8215 14.4182 12.1108 16.2837 12.641C18.1504 13.1713 18.2949 15.235 18.2949 15.235L13.3182 13.8215Z" fill="#1D8D22"/>
<path d="M11.353 19.6365L10.483 19.8835C10.6885 21.042 11.0507 22.154 11.6192 23.1363C11.7182 23.1145 11.8162 23.0955 11.9172 23.068C12.1707 22.9984 12.4195 22.913 12.6622 22.8123C12.027 21.8695 11.6067 20.7835 11.353 19.6365ZM11.0132 11.4765C10.5662 13.145 10.1662 15.5465 10.2762 17.9553C10.483 17.8641 10.6956 17.787 10.9127 17.7245L11.0737 17.6885C10.8775 15.1155 11.3017 12.4935 11.78 10.7098C11.8933 10.2867 12.0146 9.86578 12.1437 9.44727C11.9332 9.58186 11.7182 9.70943 11.4992 9.82977C11.323 10.3744 11.1609 10.9235 11.0132 11.4765Z" fill="#C04B41"/>
</svg>
