<svg width="32" height="32" viewBox="0 0 32 32" fill="none" xmlns="http://www.w3.org/2000/svg">
<path d="M15.9713 18.4993C17.3621 18.4993 18.4895 17.3719 18.4895 15.9811C18.4895 14.5903 17.3621 13.4629 15.9713 13.4629C14.5806 13.4629 13.4531 14.5903 13.4531 15.9811C13.4531 17.3719 14.5806 18.4993 15.9713 18.4993Z" fill="#00D8FF"/>
<path fill-rule="evenodd" clip-rule="evenodd" d="M1.93945 16.0009C1.93945 12.8028 8.20807 10.2285 15.9942 10.2285C23.7804 10.2285 30.0494 12.8032 30.0494 16.0009C30.0494 19.1987 23.7808 21.7737 15.9942 21.7737C8.20769 21.7737 1.93945 19.1991 1.93945 16.0009ZM3.19423 16.0009C3.19423 13.4982 8.90303 11.4833 15.9942 11.4833C23.0854 11.4833 28.7942 13.4982 28.7942 16.0009C28.7942 18.5037 23.0854 20.5186 15.9942 20.5186C8.90303 20.5186 3.19423 18.5037 3.19423 16.0009Z" fill="#00D8FF"/>
<path fill-rule="evenodd" clip-rule="evenodd" d="M8.96773 3.82935C11.7374 2.23048 17.101 6.37165 20.9945 13.115C24.8879 19.8583 25.7922 26.5742 23.0229 28.1731C20.2536 29.7719 14.8896 25.6308 10.9962 18.8874C7.1027 12.1441 6.19841 5.42822 8.96773 3.82935ZM9.59531 4.91622C11.7627 3.66483 16.362 7.60121 19.9076 13.7422C23.4532 19.8832 24.5627 25.8348 22.3953 27.0862C20.228 28.3376 15.6283 24.4012 12.0827 18.2598C8.53705 12.1185 7.42759 6.16761 9.59531 4.91622Z" fill="#00D8FF"/>
<path fill-rule="evenodd" clip-rule="evenodd" d="M23.0231 3.82931C25.7927 5.42818 24.8881 12.1444 20.9946 18.8874C17.1012 25.6303 11.7376 29.7723 8.9679 28.1734C6.1982 26.5745 7.10286 19.8583 10.9963 13.1153C14.8898 6.37237 20.2534 2.23044 23.0231 3.82931ZM22.3955 4.91618C24.5628 6.16757 23.4534 12.1188 19.9078 18.2602C16.3622 24.4015 11.7628 28.3379 9.59547 27.0865C7.42813 25.8351 8.53759 19.8839 12.0832 13.7425C15.6288 7.60117 20.2281 3.66479 22.3955 4.91618Z" fill="#00D8FF"/>
</svg>
