<svg width="32" height="32" viewBox="0 0 32 32" fill="none" xmlns="http://www.w3.org/2000/svg">
<path fill-rule="evenodd" clip-rule="evenodd" d="M0.935547 16.0022V31.0611H15.9944H31.0532V16.0022V0.943359H15.9944H0.935547V16.0022ZM25.2066 14.8024C25.9716 14.9936 26.5547 15.3332 27.0901 15.8878C27.3675 16.184 27.7783 16.7243 27.8122 16.8534C27.8216 16.8918 26.5118 17.7712 25.7182 18.2637C25.6896 18.2829 25.5748 18.1586 25.4457 17.9674C25.0587 17.4034 24.6521 17.1595 24.0305 17.1166C23.1176 17.0544 22.5295 17.5326 22.534 18.3307C22.534 18.5648 22.5675 18.7034 22.6632 18.895C22.8638 19.311 23.2369 19.5595 24.4081 20.0662C26.5642 20.9938 27.4869 21.6056 28.0606 22.4756C28.7014 23.4462 28.8448 24.995 28.4096 26.147C27.9315 27.3995 26.746 28.2503 25.0775 28.5327C24.5613 28.6234 23.3374 28.6091 22.7829 28.5086C21.5733 28.2936 20.4262 27.6958 19.7184 26.912C19.4413 26.6059 18.9011 25.8078 18.9342 25.7502C18.9485 25.731 19.0728 25.6545 19.2117 25.5732L20.3302 24.928L21.1953 24.4261L21.3771 24.6938C21.6305 25.0812 22.1851 25.6116 22.5197 25.7886C23.4805 26.2953 24.8 26.2234 25.4502 25.6402C25.7273 25.3869 25.8421 25.1241 25.8421 24.7367C25.8421 24.3877 25.7992 24.2349 25.6173 23.9717C25.3832 23.637 24.9051 23.3551 23.5475 22.767C21.9938 22.0977 21.3244 21.6817 20.7127 21.0221C20.3588 20.6396 20.0245 20.0278 19.8856 19.5162C19.7707 19.0908 19.7421 18.0246 19.8329 17.5943C20.1532 16.0933 21.286 15.0463 22.9211 14.7354C23.4515 14.6349 24.6856 14.6733 25.2066 14.8024ZM18.1361 16.0598L18.1455 17.2931H16.1856H14.2257V22.8626V28.4322H12.8395H11.453V22.8623V17.2931H9.49272H7.53282V16.0835C7.53282 15.4142 7.54712 14.8551 7.56632 14.8404C7.58063 14.8212 9.96632 14.8118 12.8584 14.8163L18.1218 14.8306L18.1361 16.0591V16.0598Z" fill="#007ACC"/>
</svg>
